{
  "accessors": [
    {
      "bufferView": 2,
      "componentType": 5126,
      "count": 41210,
      "max": [
        7.784949779510498,
        15.433361053466797,
        6.033664703369141
      ],
      "min": [
        -7.784949779510498,
        0.0,
        -6.033664703369141
      ],
      "type": "VEC3"
    },
    {
      "bufferView": 2,
      "byteOffset": 494520,
      "componentType": 5126,
      "count": 41210,
      "max": [
        0.9999167323112488,
        0.9999917149543762,
        0.9999987483024597
      ],
      "min": [
        -0.9999805092811584,
        -0.9999991655349731,
        -0.9999723434448242
      ],
      "type": "VEC3"
    },
    {
      "bufferView": 1,
      "componentType": 5126,
      "count": 41210,
      "max": [
        0.9990421533584595,
        0.9529283046722412
      ],
      "min": [
        0.0011244377819821239,
        0.0010946907568722963
      ],
      "type": "VEC2"
    },
    {
      "bufferView": 0,
      "componentType": 5125,
      "count": 208353,
      "type": "SCALAR"
    }
  ],
  "asset": {
    "extras": {
      "author": "001comic (https://sketchfab.com/001comic)",
      "license": "CC-BY-4.0 (http://creativecommons.org/licenses/by/4.0/)",
      "source": "https://sketchfab.com/3d-models/stanford-bunny-883eec40ad724aeab2f3ca101420db33",
      "title": "Stanford bunny"
    },
    "generator": "Sketchfab-12.65.0",
    "version": "2.0"
  },
  "bufferViews": [
    {
      "buffer": 0,
      "byteLength": 833412,
      "name": "floatBufferViews",
      "target": 34963
    },
    {
      "buffer": 0,
      "byteLength": 329680,
      "byteOffset": 833412,
      "byteStride": 8,
      "name": "floatBufferViews",
      "target": 34962
    },
    {
      "buffer": 0,
      "byteLength": 989040,
      "byteOffset": 1163092,
      "byteStride": 12,
      "name": "floatBufferViews",
      "target": 34962
    }
  ],
  "buffers": [
    {
      "byteLength": 2152132,
      "uri": "scene.bin"
    }
  ],
  "images": [
    {
      "uri": "textures/Bunny_baseColor.png"
    }
  ],
  "materials": [
    {
      "name": "Bunny",
      "pbrMetallicRoughness": {
        "baseColorTexture": {
          "index": 0
        },
        "metallicFactor": 0.0,
        "roughnessFactor": 0.6
      }
    }
  ],
  "meshes": [
    {
      "name": "Stanford_Bunny_Bunny_0",
      "primitives": [
        {
          "attributes": {
            "NORMAL": 1,
            "POSITION": 0,
            "TEXCOORD_0": 2
          },
          "indices": 3,
          "material": 0,
          "mode": 4
        }
      ]
    }
  ],
  "nodes": [
    {
      "children": [
        1
      ],
      "matrix": [
        1.0,
        0.0,
        0.0,
        0.0,
        0.0,
        2.220446049250313e-16,
        -1.0,
        0.0,
        0.0,
        1.0,
        2.220446049250313e-16,
        0.0,
        0.0,
        0.0,
        0.0,
        1.0
      ],
      "name": "Sketchfab_model"
    },
    {
      "children": [
        2
      ],
      "matrix": [
        1.0,
        0.0,
        0.0,
        0.0,
        0.0,
        0.0,
        1.0,
        0.0,
        0.0,
        -1.0,
        0.0,
        0.0,
        0.0,
        0.0,
        0.0,
        1.0
      ],
      "name": "b035a2ad4dac4590b7c03aff4c7c40e3.fbx"
    },
    {
      "children": [
        3,
        5,
        7
      ],
      "name": "RootNode"
    },
    {
      "children": [
        4
      ],
      "name": "Stanford_Bunny"
    },
    {
      "mesh": 0,
      "name": "Stanford_Bunny_Bunny_0"
    },
    {
      "children": [
        6
      ],
      "matrix": [
        0.0020474172485023256,
        -0.057169833613569955,
        -0.9983623681846223,
        0.0,
        0.00011724225694677987,
        0.9983644675791485,
        -0.05716971339491268,
        0.0,
        0.9999978971662209,
        -2.42861286636753e-17,
        0.0020507713515354187,
        0.0,
        -0.48688575625419617,
        12.105504035949707,
        52.68168640136719,
        1.0
      ],
      "name": "Camera"
    },
    {
      "name": "Object_6"
    },
    {
      "children": [
        8
      ],
      "matrix": [
        0.2604729545999721,
        8.326673015560919e-18,
        0.14884168459984046,
        0.0,
        -0.1264911079042414,
        0.1581138929665956,
        0.22135944439906566,
        0.0,
        -0.26148818130530765,
        -0.8498365780010595,
        0.4576043287919068,
        0.0,
        -20.0,
        25.0,
        35.0,
        1.0
      ],
      "name": "Area Light"
    },
    {
      "children": [
        9
      ],
      "matrix": [
        1.0,
        0.0,
        0.0,
        0.0,
        0.0,
        2.220446049250313e-16,
        1.0,
        0.0,
        0.0,
        -1.0,
        2.220446049250313e-16,
        0.0,
        0.0,
        0.0,
        0.0,
        1.0
      ],
      "name": "Object_8"
    },
    {
      "name": "Object_9"
    }
  ],
  "samplers": [
    {
      "magFilter": 9729,
      "minFilter": 9987,
      "wrapS": 10497,
      "wrapT": 10497
    }
  ],
  "scene": 0,
  "scenes": [
    {
      "name": "Sketchfab_Scene",
      "nodes": [
        0
      ]
    }
  ],
  "textures": [
    {
      "sampler": 0,
      "source": 0
    }
  ]
}
